<?xml version="1.0" standalone="yes"?>
<svg xmlns="http://www.w3.org/2000/svg" width="16" height="16">
<path style="fill:#000000; stroke:none;" d="M0 0L0 16L16 16L16 0L0 0z"/>
<path style="fill:#ffffff; stroke:none;" d="M7 7L7 4L9 4L9 7C17.6775 1.16017 -1.67747 1.16017 7 7z"/>
<path style="fill:#000000; stroke:none;" d="M6 5C7.50605 5.68304 8.31479 5.82589 10 6C8.18971 4.76035 8.22308 4.81631 6 5z"/>
<path style="fill:#ffb142; stroke:none;" d="M7 6L8 7L7 6z"/>
<path style="fill:#c87600; stroke:none;" d="M8 6L9 7L8 6z"/>
<path style="fill:#999999; stroke:none;" d="M2 8L2 15L14 15L14 8C9.91048 7.71112 6.08952 7.71112 2 8z"/>
<path style="fill:#000000; stroke:none;" d="M3 10C4.27746 13.8436 6.72254 13.8436 8 10C7.3152 11.2484 7.25121 11.5484 7 13C6.01432 11.5215 6 11.7968 6 10C5.3152 11.2484 5.25121 11.5484 5 13L3 10M9 10C10.0777 11.8476 9.94909 11.9662 9 14L13 14C11.9223 12.1524 12.0509 12.0338 13 10L9 10z"/>
</svg>
